<?xml version="1.0"?>
<svg xmlns="http://www.w3.org/2000/svg" xmlns:xlink="http://www.w3.org/1999/xlink" xmlns:svgjs="http://svgjs.com/svgjs"
     version="1.1" width="512" height="512" x="0" y="0" viewBox="0 0 24 24" style="enable-background:new 0 0 512 512"
     xml:space="preserve" class=""><g xmlns="http://www.w3.org/2000/svg"><path d="m22.413 23.25h-10.576v-17.6c0-.323.332-.542.632-.412l9.675 4.275c.163.072.268.233.268.412v13.325z" fill="#52188f" style="" class=""/></g><g
        xmlns="http://www.w3.org/2000/svg"><path d="m13.4 23.25h-10.8v-18.038c0-.189.118-.358.296-.423l9.9-3.6c.29-.108.604.109.604.423z" fill="#8a3cdb" style="" class=""/></g><g
        xmlns="http://www.w3.org/2000/svg"><path d="m13.25 24c-.414 0-.75-.336-.75-.75v-21.412l-9 3.429v17.983c0 .414-.336.75-.75.75s-.75-.336-.75-.75v-18.5c0-.312.192-.59.483-.701l10.5-4c.23-.087.49-.057.693.084.203.139.324.37.324.617v22.5c0 .414-.336.75-.75.75z" fill="#000000" style="" class=""/></g><g
        xmlns="http://www.w3.org/2000/svg"><path d="m22.25 24c-.414 0-.75-.336-.75-.75v-13.013l-5.054-2.242c-.378-.168-.549-.611-.381-.989.167-.38.608-.551.99-.382l5.5 2.44c.27.121.445.389.445.686v13.5c0 .414-.336.75-.75.75z" fill="#000000" style="" class=""/></g><g
        xmlns="http://www.w3.org/2000/svg"><path d="m5.75 9c-.414 0-.75-.336-.75-.75v-1.5c0-.414.336-.75.75-.75s.75.336.75.75v1.5c0 .414-.336.75-.75.75z" fill="#000000" style="" class=""/></g><g
        xmlns="http://www.w3.org/2000/svg"><path d="m10.25 9c-.414 0-.75-.336-.75-.75v-1.5c0-.414.336-.75.75-.75s.75.336.75.75v1.5c0 .414-.336.75-.75.75z" fill="#000000" style="" class=""/></g><g
        xmlns="http://www.w3.org/2000/svg"><path d="m5.75 15c-.414 0-.75-.336-.75-.75v-1.5c0-.414.336-.75.75-.75s.75.336.75.75v1.5c0 .414-.336.75-.75.75z" fill="#000000" style="" class=""/></g><g
        xmlns="http://www.w3.org/2000/svg"><path d="m10.25 15c-.414 0-.75-.336-.75-.75v-1.5c0-.414.336-.75.75-.75s.75.336.75.75v1.5c0 .414-.336.75-.75.75z" fill="#000000" style="" class=""/></g><g
        xmlns="http://www.w3.org/2000/svg"><path d="m5.75 21c-.414 0-.75-.336-.75-.75v-1.5c0-.414.336-.75.75-.75s.75.336.75.75v1.5c0 .414-.336.75-.75.75z" fill="#000000" style="" class=""/></g><g
        xmlns="http://www.w3.org/2000/svg"><path d="m10.25 21c-.414 0-.75-.336-.75-.75v-1.5c0-.414.336-.75.75-.75s.75.336.75.75v1.5c0 .414-.336.75-.75.75z" fill="#000000" style="" class=""/></g><g
        xmlns="http://www.w3.org/2000/svg"><path d="m16.25 15c-.414 0-.75-.336-.75-.75v-1.5c0-.414.336-.75.75-.75s.75.336.75.75v1.5c0 .414-.336.75-.75.75z" fill="#000000" style="" class=""/></g><g
        xmlns="http://www.w3.org/2000/svg"><path d="m19.25 15c-.414 0-.75-.336-.75-.75v-1.5c0-.414.336-.75.75-.75s.75.336.75.75v1.5c0 .414-.336.75-.75.75z" fill="#000000" style="" class=""/></g><g
        xmlns="http://www.w3.org/2000/svg"><path d="m16.25 21c-.414 0-.75-.336-.75-.75v-1.5c0-.414.336-.75.75-.75s.75.336.75.75v1.5c0 .414-.336.75-.75.75z" fill="#000000" style="" class=""/></g><g
        xmlns="http://www.w3.org/2000/svg"><path d="m19.25 21c-.414 0-.75-.336-.75-.75v-1.5c0-.414.336-.75.75-.75s.75.336.75.75v1.5c0 .414-.336.75-.75.75z" fill="#000000" style="" class=""/></g><g
        xmlns="http://www.w3.org/2000/svg"><path d="m23.25 24h-22.5c-.414 0-.75-.336-.75-.75s.336-.75.75-.75h22.5c.414 0 .75.336.75.75s-.336.75-.75.75z" fill="#000000" style="" class=""/></g></svg>
